<?xml version="1.0" encoding="UTF-8" standalone="no"?>
<!DOCTYPE svg PUBLIC "-//W3C//DTD SVG 1.1//EN" "http://www.w3.org/Graphics/SVG/1.1/DTD/svg11.dtd">
<svg width="100%" height="100%" viewBox="0 0 662 662" version="1.1" xmlns="http://www.w3.org/2000/svg" xmlns:xlink="http://www.w3.org/1999/xlink" xml:space="preserve" xmlns:serif="http://www.serif.com/" style="fill-rule:evenodd;clip-rule:evenodd;stroke-linecap:round;stroke-linejoin:round;stroke-miterlimit:1.5;">
    <g transform="matrix(5.55556,0,0,5.55556,-4441.33,-2472.32)">
        <g id="execute">
            <g transform="matrix(1,0,0,1,648.836,15.4581)">
                <circle cx="210.161" cy="489.118" r="58.558" style="fill:white;stroke:black;stroke-width:2px;"/>
            </g>
            <g transform="matrix(0.777645,0,0,0.777645,820.115,470.078)">
                <g transform="matrix(1,0,0,1,0,-0.637571)">
                    <rect x="41" y="23" width="18" height="4" style="fill:rgb(255,96,0);"/>
                    <rect x="41" y="33" width="18" height="4" style="fill:rgb(255,96,0);"/>
                    <rect x="41" y="43" width="18" height="4" style="fill:rgb(255,96,0);"/>
                    <rect x="41" y="53" width="18" height="4" style="fill:rgb(255,96,0);"/>
                    <circle cx="43" cy="65" r="2"/>
                    <circle cx="50" cy="65" r="2" style="fill:rgb(255,96,0);"/>
                    <circle cx="57" cy="65" r="2"/>
                </g>
                <g transform="matrix(1,0,0,1,-0.696946,2.59892)">
                    <path d="M66.78,74.988L34.613,74.988L34.613,8.539L66.78,8.539L66.78,74.988ZM37.185,11.111L37.185,72.417L64.209,72.417L64.209,11.111L37.185,11.111Z"/>
                </g>
            </g>
            <g transform="matrix(0.725789,0,0,0.725789,302.115,315.652)">
                <g transform="matrix(0.359928,0,0,0.399291,564.84,234.052)">
                    <g transform="matrix(1.78407,0,0,1.78407,-795.485,-379.984)">
                        <path d="M760.088,264.396L790.816,264.262L805.702,279.63L805.173,326.544L759.772,326.514L760.088,264.396Z" style="fill:white;"/>
                    </g>
                    <g transform="matrix(0.391388,0,0,0.391388,555.698,87.5602)">
                        <path d="M225,72L155,2C154,1 152,0 150,0L15,0C7,0 0,7 0,15L0,288C0,296 7,303 15,303L212,303C220,303 227,296 227,288L227,77C227,75 226,73 225,72ZM157,24L203,70L160,70C159,70 157,68 157,67L157,24ZM213,288L212,288L15,288L14,288L14,15L15,14L143,14L143,67C143,76 151,84 160,84L213,84L213,288Z"/>
                    </g>
                </g>
                <g transform="matrix(1,0,0,1,768.785,8.89003)">
                    <circle cx="8.599" cy="283.109" r="3.307" style="fill:none;stroke:black;stroke-opacity:0.959;stroke-width:1px;stroke-linecap:butt;stroke-linejoin:miter;stroke-miterlimit:4;"/>
                    <path d="M7.938,279.537L8.202,278.479L8.996,278.479L9.26,279.537L7.938,279.537" style="fill-rule:nonzero;stroke:black;stroke-width:0.26px;stroke-miterlimit:4;"/>
                    <path d="M7.938,286.681L8.202,287.74L8.996,287.74L9.26,286.681L7.938,286.681" style="fill-rule:nonzero;stroke:black;stroke-width:0.26px;stroke-miterlimit:4;"/>
                    <path d="M12.171,283.771L13.229,283.506L13.229,282.712L12.171,282.448L12.171,283.771" style="fill-rule:nonzero;stroke:black;stroke-width:0.26px;stroke-miterlimit:4;"/>
                    <path d="M5.027,283.771L3.969,283.506L3.969,282.712L5.027,282.448L5.027,283.771" style="fill-rule:nonzero;stroke:black;stroke-width:0.26px;stroke-miterlimit:4;"/>
                    <path d="M5.415,281.267L4.853,280.331L5.415,279.77L6.35,280.331L5.415,281.267" style="fill-rule:nonzero;stroke:black;stroke-width:0.26px;stroke-miterlimit:4;"/>
                    <path d="M5.821,285.449L5.26,286.385L5.821,286.946L6.756,286.385L5.821,285.449" style="fill-rule:nonzero;stroke:black;stroke-width:0.26px;stroke-miterlimit:4;"/>
                    <path d="M11.642,285.185L12.203,286.12L11.642,286.681L10.706,286.12L11.642,285.185" style="fill-rule:nonzero;stroke:black;stroke-width:0.26px;stroke-miterlimit:4;"/>
                    <path d="M11.61,281.002L12.171,280.067L11.61,279.505L10.674,280.067L11.61,281.002" style="fill-rule:nonzero;stroke:black;stroke-width:0.26px;stroke-miterlimit:4;"/>
                    <g transform="matrix(0.978148,-0.207912,0.207912,0.978148,0,0)">
                        <circle cx="-46.18" cy="286.891" r="3.307" style="fill:none;stroke:black;stroke-opacity:0.959;stroke-width:1px;stroke-linecap:butt;stroke-linejoin:miter;stroke-miterlimit:4;"/>
                    </g>
                    <path d="M13.087,286.867L13.126,285.776L13.903,285.611L14.381,286.592L13.087,286.867" style="fill-rule:nonzero;stroke:black;stroke-width:0.26px;stroke-miterlimit:4;"/>
                    <path d="M14.573,293.854L15.051,294.834L15.828,294.669L15.867,293.579L14.573,293.854" style="fill-rule:nonzero;stroke:black;stroke-width:0.26px;stroke-miterlimit:4;"/>
                    <path d="M18.108,290.127L19.089,289.648L18.924,288.872L17.833,288.833L18.108,290.127" style="fill-rule:nonzero;stroke:black;stroke-width:0.26px;stroke-miterlimit:4;"/>
                    <path d="M11.121,291.613L10.03,291.574L9.865,290.797L10.846,290.319L11.121,291.613" style="fill-rule:nonzero;stroke:black;stroke-width:0.26px;stroke-miterlimit:4;"/>
                    <path d="M10.979,289.083L10.236,288.284L10.668,287.619L11.7,287.973L10.979,289.083" style="fill-rule:nonzero;stroke:black;stroke-width:0.26px;stroke-miterlimit:4;"/>
                    <path d="M12.246,293.089L11.892,294.121L12.557,294.553L13.356,293.81L12.246,293.089" style="fill-rule:nonzero;stroke:black;stroke-width:0.26px;stroke-miterlimit:4;"/>
                    <path d="M17.885,291.62L18.628,292.418L18.196,293.084L17.164,292.73L17.885,291.62" style="fill-rule:nonzero;stroke:black;stroke-width:0.26px;stroke-miterlimit:4;"/>
                    <path d="M16.984,287.536L17.338,286.504L16.673,286.072L15.874,286.815L16.984,287.536" style="fill-rule:nonzero;stroke:black;stroke-width:0.26px;stroke-miterlimit:4;"/>
                    <g transform="matrix(0.978148,-0.207912,0.207912,0.978148,0,0)">
                        <circle cx="-42.477" cy="274.545" r="3.307" style="fill:none;stroke:black;stroke-opacity:0.959;stroke-width:1px;stroke-linecap:butt;stroke-linejoin:miter;stroke-miterlimit:4;"/>
                    </g>
                    <path d="M14.142,274.021L14.181,272.931L14.958,272.766L15.436,273.746L14.142,274.021" style="fill-rule:nonzero;stroke:black;stroke-width:0.26px;stroke-miterlimit:4;"/>
                    <path d="M15.628,281.009L16.107,281.989L16.883,281.824L16.922,280.734L15.628,281.009" style="fill-rule:nonzero;stroke:black;stroke-width:0.26px;stroke-miterlimit:4;"/>
                    <path d="M19.163,277.282L20.144,276.803L19.979,276.027L18.888,275.988L19.163,277.282" style="fill-rule:nonzero;stroke:black;stroke-width:0.26px;stroke-miterlimit:4;"/>
                    <path d="M12.176,278.767L11.086,278.728L10.921,277.952L11.901,277.473L12.176,278.767" style="fill-rule:nonzero;stroke:black;stroke-width:0.26px;stroke-miterlimit:4;"/>
                    <path d="M12.034,276.237L11.291,275.439L11.723,274.773L12.755,275.128L12.034,276.237" style="fill-rule:nonzero;stroke:black;stroke-width:0.26px;stroke-miterlimit:4;"/>
                    <path d="M13.301,280.244L12.947,281.275L13.612,281.708L14.411,280.964L13.301,280.244" style="fill-rule:nonzero;stroke:black;stroke-width:0.26px;stroke-miterlimit:4;"/>
                    <path d="M18.94,278.775L19.683,279.573L19.251,280.239L18.219,279.884L18.94,278.775" style="fill-rule:nonzero;stroke:black;stroke-width:0.26px;stroke-miterlimit:4;"/>
                    <path d="M18.039,274.69L18.393,273.659L17.728,273.226L16.929,273.97L18.039,274.69" style="fill-rule:nonzero;stroke:black;stroke-width:0.26px;stroke-miterlimit:4;"/>
                </g>
            </g>
        </g>
    </g>
</svg>
