<?xml version="1.0" encoding="UTF-8" standalone="no"?>
<!DOCTYPE svg PUBLIC "-//W3C//DTD SVG 1.1//EN" "http://www.w3.org/Graphics/SVG/1.1/DTD/svg11.dtd">
<svg width="100%" height="100%" viewBox="0 0 120 120" version="1.1" xmlns="http://www.w3.org/2000/svg" xmlns:xlink="http://www.w3.org/1999/xlink" xml:space="preserve" xmlns:serif="http://www.serif.com/" style="fill-rule:evenodd;clip-rule:evenodd;stroke-linecap:round;stroke-linejoin:round;stroke-miterlimit:1.5;">
    <g transform="matrix(1,0,0,1,-958.151,-440.377)">
        <g id="review">
            <g transform="matrix(1,0,0,1,807.548,10.8177)">
                <circle cx="210.161" cy="489.118" r="58.558" style="fill:white;stroke:black;stroke-width:2px;"/>
            </g>
            <g transform="matrix(0.777645,0,0,0.777645,978.827,465.437)">
                <g transform="matrix(1,0,0,1,0,-0.637571)">
                    <rect x="41" y="23" width="18" height="4" style="fill:rgb(255,96,0);"/>
                    <rect x="41" y="33" width="18" height="4" style="fill:rgb(255,96,0);"/>
                    <rect x="41" y="43" width="18" height="4" style="fill:rgb(255,96,0);"/>
                    <rect x="41" y="53" width="18" height="4" style="fill:rgb(255,96,0);"/>
                    <circle cx="43" cy="65" r="2"/>
                    <circle cx="50" cy="65" r="2" style="fill:rgb(255,96,0);"/>
                    <circle cx="57" cy="65" r="2"/>
                </g>
                <g transform="matrix(1,0,0,1,-0.696946,2.59892)">
                    <path d="M66.78,74.988L34.613,74.988L34.613,8.539L66.78,8.539L66.78,74.988ZM37.185,11.111L37.185,72.417L64.209,72.417L64.209,11.111L37.185,11.111Z"/>
                </g>
            </g>
            <g transform="matrix(0.357241,0,0,0.357241,787.478,403.72)">
                <g transform="matrix(1.87795,0,0,1.93269,-1263.81,-675.247)">
                    <path d="M1050.3,500.12C1050.3,499.812 1050.04,499.562 1049.72,499.562L1016.6,499.562C1016.29,499.562 1016.03,499.812 1016.03,500.12L1016.03,540.375C1016.03,540.683 1016.29,540.933 1016.6,540.933L1049.72,540.933C1050.04,540.933 1050.3,540.683 1050.3,540.375L1050.3,500.12Z" style="fill:white;"/>
                </g>
                <g transform="matrix(1,0,0,1,638.47,279.476)">
                    <path d="M10.41,11C8.831,11 8.405,11.082 7.973,11.313C7.681,11.469 7.469,11.681 7.313,11.973C7.082,12.405 7,12.831 7,14.41L7,86.59C7,88.169 7.082,88.595 7.313,89.027C7.469,89.319 7.681,89.531 7.973,89.687C8.405,89.918 8.831,90 10.41,90L65.59,90C67.169,90 67.595,89.918 68.027,89.687C68.319,89.531 68.531,89.319 68.687,89.027C68.918,88.595 69,88.169 69,86.59L69,14.41C69,12.831 68.918,12.405 68.687,11.973C68.531,11.681 68.319,11.469 68.027,11.313C67.595,11.082 67.169,11 65.59,11L10.41,11ZM72,38.2L69,41.2L69,59.57L72,56.57L72,86.59C72,88.819 71.768,89.627 71.332,90.442C70.896,91.257 70.257,91.896 69.442,92.332C68.627,92.768 67.819,93 65.59,93L10.41,93C8.181,93 7.373,92.768 6.558,92.332C5.743,91.896 5.104,91.257 4.668,90.442C4.232,89.627 4,88.819 4,86.59L4,14.41C4,12.181 4.232,11.373 4.668,10.558C5.104,9.743 5.743,9.104 6.558,8.668C7.373,8.232 8.181,8 10.41,8L65.59,8C67.819,8 68.627,8.232 69.442,8.668C70.257,9.104 70.896,9.743 71.332,10.558C71.768,11.373 72,12.181 72,14.41L72,38.2Z" style="fill-rule:nonzero;"/>
                    <path d="M18,27.784L16.212,28.768C15.97,28.902 15.666,28.813 15.533,28.572C15.479,28.473 15.459,28.36 15.477,28.25L15.825,26.129L14.333,24.605C14.139,24.408 14.143,24.092 14.34,23.898C14.415,23.825 14.511,23.777 14.615,23.761L16.656,23.451L17.548,21.558C17.665,21.308 17.963,21.201 18.213,21.318C18.318,21.368 18.403,21.453 18.452,21.558L19.344,23.451L21.385,23.761C21.658,23.803 21.846,24.058 21.804,24.331C21.789,24.434 21.741,24.531 21.667,24.605L20.175,26.129L20.522,28.25C20.567,28.522 20.382,28.779 20.11,28.824C19.999,28.842 19.886,28.822 19.788,28.768L18,27.784Z" style="fill:rgb(255,96,0);fill-rule:nonzero;"/>
                    <path d="M28,27.784L26.212,28.768C25.97,28.902 25.666,28.813 25.533,28.572C25.479,28.473 25.459,28.36 25.477,28.25L25.825,26.129L24.333,24.605C24.139,24.408 24.143,24.092 24.34,23.898C24.415,23.825 24.511,23.777 24.615,23.761L26.656,23.451L27.548,21.558C27.665,21.308 27.963,21.201 28.213,21.318C28.318,21.368 28.403,21.453 28.452,21.558L29.344,23.451L31.385,23.761C31.658,23.803 31.846,24.058 31.804,24.331C31.789,24.434 31.741,24.531 31.667,24.605L30.175,26.129L30.522,28.25C30.567,28.522 30.382,28.779 30.11,28.824C29.999,28.842 29.886,28.822 29.788,28.768L28,27.784Z" style="fill:rgb(255,96,0);fill-rule:nonzero;"/>
                    <path d="M38,27.784L36.212,28.768C35.97,28.902 35.666,28.813 35.533,28.572C35.479,28.473 35.459,28.36 35.477,28.25L35.825,26.129L34.333,24.605C34.139,24.408 34.143,24.092 34.34,23.898C34.415,23.825 34.511,23.777 34.615,23.761L36.656,23.451L37.548,21.558C37.665,21.308 37.963,21.201 38.213,21.318C38.318,21.368 38.403,21.453 38.452,21.558L39.344,23.451L41.385,23.761C41.658,23.803 41.846,24.058 41.804,24.331C41.789,24.434 41.741,24.531 41.667,24.605L40.175,26.129L40.522,28.25C40.567,28.522 40.382,28.779 40.11,28.824C39.999,28.842 39.886,28.822 39.788,28.768L38,27.784Z" style="fill:rgb(255,96,0);fill-rule:nonzero;"/>
                    <path d="M48,27.784L46.212,28.768C45.97,28.902 45.666,28.813 45.533,28.572C45.479,28.473 45.459,28.36 45.477,28.25L45.825,26.129L44.333,24.605C44.139,24.408 44.143,24.092 44.34,23.898C44.415,23.825 44.511,23.777 44.615,23.761L46.656,23.451L47.548,21.558C47.665,21.308 47.963,21.201 48.213,21.318C48.318,21.368 48.403,21.453 48.452,21.558L49.344,23.451L51.385,23.761C51.658,23.803 51.846,24.058 51.804,24.331C51.789,24.434 51.741,24.531 51.667,24.605L50.175,26.129L50.522,28.25C50.567,28.522 50.382,28.779 50.11,28.824C49.999,28.842 49.886,28.822 49.788,28.768L48,27.784Z" style="fill:rgb(255,96,0);fill-rule:nonzero;"/>
                    <path d="M58,27.784L56.212,28.768C55.97,28.902 55.666,28.813 55.533,28.572C55.479,28.473 55.459,28.36 55.477,28.25L55.825,26.129L54.333,24.605C54.139,24.408 54.143,24.092 54.34,23.898C54.415,23.825 54.511,23.777 54.615,23.761L56.656,23.451L57.548,21.558C57.665,21.308 57.963,21.201 58.213,21.318C58.318,21.368 58.403,21.453 58.452,21.558L59.344,23.451L61.385,23.761C61.658,23.803 61.846,24.058 61.804,24.331C61.789,24.434 61.741,24.531 61.667,24.605L60.175,26.129L60.522,28.25C60.567,28.522 60.382,28.779 60.11,28.824C59.999,28.842 59.886,28.822 59.788,28.768L58,27.784Z" style="fill:rgb(255,96,0);fill-rule:nonzero;"/>
                    <rect x="14" y="39" width="47" height="3" style="fill:rgb(255,96,0);"/>
                    <rect x="14" y="50" width="32" height="3" style="fill:rgb(255,96,0);"/>
                    <rect x="14" y="61" width="22" height="3"/>
                    <rect x="14" y="72" width="16" height="3"/>
                    <g transform="matrix(0.707107,-0.707107,0.707107,0.707107,-15.9993,63.3744)">
                        <path d="M49.311,56L98,56L98,46L49.311,46L40,51L49.311,56ZM48.647,59L37.034,52.789C36.11,52.295 35.736,51.094 36.198,50.106C36.379,49.719 36.672,49.405 37.034,49.211L48.647,43L99.13,43C100.163,43 101,43.895 101,45L101,57C101,58.105 100.163,59 99.13,59L48.647,59Z" style="fill-rule:nonzero;"/>
                    </g>
                </g>
            </g>
        </g>
    </g>
</svg>
