<?xml version="1.0" encoding="UTF-8" standalone="no"?>
<!DOCTYPE svg PUBLIC "-//W3C//DTD SVG 1.1//EN" "http://www.w3.org/Graphics/SVG/1.1/DTD/svg11.dtd">
<svg width="100%" height="100%" viewBox="0 0 120 120" version="1.1" xmlns="http://www.w3.org/2000/svg" xmlns:xlink="http://www.w3.org/1999/xlink" xml:space="preserve" xmlns:serif="http://www.serif.com/" style="fill-rule:evenodd;clip-rule:evenodd;stroke-linecap:round;stroke-linejoin:round;stroke-miterlimit:1.5;">
    <g transform="matrix(1,0,0,1,-648.144,-441.508)">
        <g id="sourceToTarget">
            <g transform="matrix(1,0,0,1,497.541,11.9485)">
                <circle cx="210.161" cy="489.118" r="58.558" style="fill:white;stroke:black;stroke-width:2px;"/>
            </g>
            <g transform="matrix(0.646518,0,0,0.646518,659.371,455.87)">
                <g>
                    <path d="M106.969,50.215C107.122,50.611 107.5,50.853 107.9,50.853C108.021,50.853 108.144,50.831 108.263,50.785C108.777,50.584 109.032,50.005 108.832,49.49C103.125,34.814 89.292,25.331 73.591,25.331C58.759,25.331 45.605,33.799 39.382,47.107L36.479,38.971C36.295,38.451 35.725,38.179 35.202,38.365C34.682,38.551 34.411,39.123 34.597,39.643L38.322,50.088C38.325,50.096 38.331,50.101 38.334,50.108C38.414,50.404 38.612,50.665 38.92,50.785C39.301,50.932 39.721,50.829 39.993,50.553L50.017,46.957C50.536,46.771 50.807,46.198 50.62,45.678C50.434,45.158 49.857,44.887 49.341,45.074L41.17,48.006C47.055,35.373 59.527,27.331 73.591,27.331C88.461,27.331 101.562,36.313 106.969,50.215Z" style="fill-rule:nonzero;"/>
                    <path d="M22.418,50.818C22.951,50.961 23.5,50.645 23.643,50.111C27.921,34.134 39.668,21.125 55.067,15.313C67.851,10.488 81.746,10.937 94.191,16.576C106.678,22.234 116.213,32.432 121.039,45.293C121.373,46.183 121.68,47.102 121.97,48.034L113.893,44.363C113.385,44.135 112.796,44.358 112.568,44.86C112.34,45.363 112.562,45.956 113.064,46.185L123.141,50.763C123.149,50.767 123.159,50.765 123.167,50.769C123.287,50.819 123.413,50.853 123.546,50.853C123.548,50.853 123.55,50.852 123.553,50.852C123.553,50.852 123.554,50.853 123.555,50.853C123.56,50.853 123.564,50.85 123.569,50.85C123.648,50.848 123.727,50.84 123.806,50.818C123.819,50.815 123.828,50.805 123.842,50.801C123.863,50.794 123.886,50.796 123.907,50.789C123.968,50.766 124.015,50.721 124.07,50.687C124.108,50.663 124.149,50.645 124.184,50.616C124.252,50.56 124.303,50.492 124.354,50.42C124.377,50.387 124.404,50.359 124.423,50.324C124.435,50.302 124.456,50.287 124.466,50.264L129.03,40.159C129.258,39.656 129.034,39.063 128.531,38.836C128.027,38.607 127.436,38.833 127.208,39.336L123.747,46.997C123.485,46.18 123.206,45.375 122.912,44.59C117.897,31.229 107.99,20.633 95.017,14.754C82.082,8.894 67.644,8.429 54.36,13.442C38.36,19.481 26.155,32.996 21.711,49.594C21.568,50.127 21.885,50.676 22.418,50.818Z" style="fill-rule:nonzero;"/>
                </g>
                <g transform="matrix(0.995539,0,0,0.995539,-17.0198,51.9464)">
                    <rect x="41" y="23" width="18" height="4" style="fill:rgb(255,96,0);"/>
                    <rect x="41" y="33" width="18" height="4" style="fill:rgb(255,96,0);"/>
                    <rect x="41" y="43" width="18" height="4" style="fill:rgb(255,96,0);"/>
                    <rect x="41" y="53" width="18" height="4" style="fill:rgb(255,96,0);"/>
                    <circle cx="43" cy="65" r="2"/>
                    <circle cx="50" cy="65" r="2" style="fill:rgb(255,96,0);"/>
                    <circle cx="57" cy="65" r="2"/>
                </g>
                <g transform="matrix(0.995539,0,0,0.995539,-17.7136,55.1685)">
                    <path d="M66.78,74.988L34.613,74.988L34.613,8.539L66.78,8.539L66.78,74.988ZM37.721,11.646L37.721,71.881L63.673,71.881L63.673,11.646L37.721,11.646Z"/>
                </g>
                <g transform="matrix(0.995539,0,0,0.995539,66.9802,51.9464)">
                    <rect x="41" y="23" width="18" height="4" style="fill:rgb(255,96,0);"/>
                    <rect x="41" y="33" width="18" height="4" style="fill:rgb(255,96,0);"/>
                    <rect x="41" y="43" width="18" height="4" style="fill:rgb(255,96,0);"/>
                    <rect x="41" y="53" width="18" height="4" style="fill:rgb(255,96,0);"/>
                    <circle cx="43" cy="65" r="2"/>
                    <circle cx="50" cy="65" r="2" style="fill:rgb(255,96,0);"/>
                    <circle cx="57" cy="65" r="2"/>
                </g>
                <g transform="matrix(0.995539,0,0,0.995539,66.2864,55.1685)">
                    <path d="M66.78,74.988L34.613,74.988L34.613,8.539L66.78,8.539L66.78,74.988ZM37.721,11.646L37.721,71.881L63.673,71.881L63.673,11.646L37.721,11.646Z"/>
                </g>
            </g>
        </g>
    </g>
</svg>
